<svg xmlns="http://www.w3.org/2000/svg" viewBox="0 0 256 166" style="enable-background:new 0 0 256 166" xml:space="preserve"><style>.st1{fill:#607786}.st2{fill:#36434f}.st3{fill:#f4f4f4}.st4{fill:#d7d9dc}</style><path d="M256 163c0 1.6-1.4 3-3 3H3c-1.6 0-3-1.4-3-3V3c0-1.7 1.4-3 3-3h250c1.6 0 3 1.3 3 3v160z" style="fill:#4fc3f7"/><path class="st1" d="m251.7 166-36.3-58.3h-15.6l-25.4-1.9-37.6 60.2h114.9z"/><path class="st2" d="M184.1 166h67.6l-36.3-58.3h-15.7l1.4 8.9 1.8 10.2c.2 1.1-.4 2.2-1.4 2.7l-17.8 8c-.9.4-1.6 1.4-1.4 2.4l1.8 26.1z"/><path class="st3" d="m174.3 105.9 25.6 10.4c.8.3 1.6.2 2.2-.2l13.1-8.3-19-30.4c-1-1.6-3.2-1.6-4.2 0l-17.7 28.5z"/><path class="st4" d="M201.1 116.4c.4-.1.8-.1 1.1-.4l13.1-8.3-19-30.4c-.4-.7-1.1-1.1-1.8-1.2l6.6 40.3z"/><path class="st1" d="m150.8 166-43.5-69.8H85.6l-35.3-2.6L5.2 166h145.6z"/><path class="st2" d="M63.1 166h87.7l-43.5-69.8H85.6l2 12.4 2.6 15c.2 1.1-.4 2.2-1.4 2.7l-26 11.7c-1 .4-1.5 1.4-1.5 2.4l1.8 25.6z"/><path class="st3" d="m50.2 93.6 36.1 14.6c.8.3 1.6.2 2.2-.2l18.7-11.8-27.1-43.6c-1-1.6-3.2-1.6-4.2 0l-25.7 41z"/><path class="st4" d="M87.5 108.4c.4-.1.8-.1 1.2-.4l18.7-11.8-27.2-43.6c-.4-.7-1.1-1.1-1.8-1.2l9.1 57z"/><circle cx="40.1" cy="39.3" style="fill:#ffbe27" r="21.7"/><path class="st3" d="M156.7 74.2c5.2 0 9.4-4.2 9.4-9.4 0-4.1-2.6-7.7-6.5-8.9-1.4-2.8-4.2-4.4-7.3-4.4-.9 0-1.6.2-2.4.3-2.6-2.8-6.2-4.5-10.1-4.5-3.1 0-6.1 1.1-8.4 2.9-2.1 1.7-3.7 4.1-4.5 6.7-4.8 0-8.7 3.9-8.7 8.7s3.9 8.7 8.7 8.7h29.8zM232.4 47c5.2 0 9.4-4.2 9.4-9.4 0-4.1-2.6-7.7-6.5-8.9-1.4-2.8-4.2-4.4-7.3-4.4-.9 0-1.6.2-2.4.3-2.6-2.8-6.2-4.5-10.1-4.5-3.1 0-6.1 1.1-8.4 2.9-2.1 1.7-3.7 4.1-4.5 6.7-4.8 0-8.6 3.9-8.6 8.7s3.9 8.7 8.6 8.7h29.8z"/></svg>